<svg xmlns="http://www.w3.org/2000/svg" width="52" height="80" viewBox="0 0 52 80" fill="none">
  <g clip-path="url(#clip0_15_620)">
    <path d="M51.9975 47.5159V45.3112C51.9975 32.813 51.9975 20.3148 51.9975 7.81654C51.9975 3.06803 48.96 0.00256954 44.2647 0C32.084 0 19.9059 0 7.72776 0.00256954H7.57983C7.14372 0.00256954 6.73055 0.00513908 6.34799 0.066808C2.50455 0.675789 0.0179132 3.62305 0.0153629 7.57757C0.00771167 15.7538 0.0102621 23.9275 0.0102621 32.1038V40.8891C0.0102621 41.6214 0.0102621 42.3511 0.00516128 43.0835C-0.00248991 44.7896 -0.0101411 46.5549 0.023014 48.2842C0.0893243 51.6786 2.40253 54.541 5.64663 55.2476C6.3684 55.4044 7.13862 55.4429 7.88333 55.4789C8.22763 55.4943 8.55153 55.5123 8.87033 55.538L9.58189 55.5997L9.67881 56.314C9.74512 56.8074 9.79868 57.2904 9.84969 57.7607C9.9568 58.7499 10.0563 59.6827 10.2756 60.5692C11.2065 64.3541 13.2392 67.5917 15.2999 70.5287C15.8202 71.2687 15.9706 71.9702 15.7921 72.8027C15.4937 74.1954 15.2412 75.6292 14.9989 77.0193L14.9071 77.5358C14.7745 78.2964 14.8893 78.9234 15.2438 79.3499C15.5957 79.7713 16.1798 79.9949 16.9372 79.9949C24.0401 80 31.1455 80 38.2483 79.9949C38.9726 79.9949 39.5414 79.7765 39.8933 79.3679C40.2555 78.9465 40.3856 78.3247 40.2759 77.5718C40.1484 76.6904 40.0285 75.7937 39.9137 74.9277C39.776 73.8871 39.6332 72.8104 39.4725 71.7595C39.3476 70.9501 39.5771 70.2974 40.1917 69.709C41.5536 68.4037 42.2065 66.7977 42.1912 64.7935C42.1759 63.0385 42.181 61.2527 42.1836 59.5285C42.1836 58.7808 42.1861 58.0356 42.1861 57.2879V55.4558H44.127C48.9753 55.4506 51.9899 52.4083 51.9899 47.5133L51.9975 47.5159ZM38.5697 59.878C38.5748 61.4839 38.5799 63.1438 38.534 64.7832C38.5085 65.6491 38.1106 66.6153 37.5444 67.1857C36.4656 68.2752 35.8943 68.8662 35.7107 69.3236C35.5526 69.7167 35.6138 70.2255 35.7795 71.4357C35.8229 71.7569 35.8739 72.1192 35.9224 72.5278C35.9963 73.1342 36.0805 73.738 36.1672 74.3701C36.208 74.6708 36.2514 74.9791 36.2947 75.2952L36.4325 76.3153H18.8475L19.0362 75.2566C19.0974 74.9175 19.1535 74.5783 19.2071 74.2442C19.3321 73.4914 19.4621 72.7154 19.633 71.9548C19.8421 71.0375 19.6738 70.3077 19.077 69.5214C16.8505 66.5844 15.2183 63.7554 14.0935 60.8698C13.5044 59.3615 12.9 57.0926 14.4404 54.8391C14.726 54.4203 15.3305 53.9603 15.9783 53.9397C17.4499 53.8909 18.0798 53.2511 18.0824 51.7942C18.0926 48.7775 18.09 45.7609 18.09 42.7443C18.09 41.1614 18.09 39.5786 18.09 37.9983V37.9212C18.09 37.5769 18.09 37.2223 18.1461 36.8472C18.34 35.547 19.3397 34.6605 20.6328 34.6425C20.6481 34.6425 20.6634 34.6425 20.6787 34.6425C22.0533 34.6425 23.1143 35.6035 23.2112 36.9397C23.2852 37.9726 23.3005 39.0775 23.2622 40.5165C23.1806 43.6847 24.4762 45.8251 27.3428 47.2538C28.9623 48.0606 30.5818 48.9214 32.1478 49.7514C33.2292 50.3244 34.3462 50.918 35.4506 51.4884C37.5495 52.5702 38.6003 54.3149 38.5748 56.6737C38.5646 57.7401 38.5671 58.8244 38.5697 59.8754V59.878ZM48.3708 47.6726C48.3708 50.3116 47.0038 51.7094 44.3081 51.8276C44.0683 51.8379 43.826 51.8456 43.5838 51.8456C42.028 51.8456 40.4799 51.5398 39.3118 49.7925C38.9624 49.2683 38.1999 48.8572 37.4603 48.4589L37.1848 48.3099C34.8385 47.0277 32.0458 45.5219 29.1281 44.083C27.4882 43.2762 26.7741 42.0916 26.8787 40.3597C26.9475 39.2137 26.9322 37.9649 26.8353 36.6519C26.593 33.4168 23.9457 30.9861 20.6685 30.9861H20.6353C17.3427 31.004 14.6674 33.4837 14.5424 36.6339C14.4302 39.4296 14.4429 42.2895 14.4557 45.0543C14.4608 46.2697 14.4659 47.4825 14.4633 48.6953C14.4582 50.2756 12.9637 51.7865 11.3876 51.8019C10.245 51.8122 9.04121 51.8122 7.48292 51.8019C5.15441 51.7865 3.64968 50.2627 3.64713 47.9219C3.64202 43.0346 3.64202 38.1474 3.64457 33.2575V27.6431V23.0616C3.64457 17.9714 3.64457 12.8811 3.64457 7.79084C3.64457 5.08512 5.06259 3.65388 7.74306 3.65388C19.9237 3.65388 32.1019 3.65388 44.2826 3.65388C46.9579 3.65388 48.3734 5.08769 48.3734 7.79598C48.3734 21.0882 48.3734 34.3804 48.3734 47.6701L48.3708 47.6726Z" fill="#C8C9DF"/>
    <path d="M29.0519 10.9052H26.0527H22.982C21.9593 10.9052 20.934 10.9052 19.9088 10.9052C18.5443 10.9052 17.1824 10.9052 15.8179 10.9052C14.5096 10.9052 13.6935 11.6041 13.6909 12.7244C13.6909 13.2229 13.8541 13.6546 14.1653 13.9681C14.5402 14.3458 15.1217 14.5539 15.8052 14.5565C22.5994 14.5591 29.3937 14.5591 36.1854 14.5565C37.4963 14.5565 38.3099 13.8576 38.3124 12.7347C38.3124 12.2028 38.1288 11.7531 37.7768 11.4345C37.3968 11.0902 36.8511 10.9078 36.1956 10.9052C33.8135 10.9026 31.4289 10.9052 29.0468 10.9052H29.0519Z" fill="#C8C9DF"/>
    <path d="M35.3076 20.947H34.8129H29.8982C25.1647 20.947 20.4337 20.947 15.7002 20.947C14.6622 20.947 13.943 21.4506 13.7287 22.3269C13.5961 22.8716 13.7032 23.4061 14.0322 23.8326C14.4021 24.3105 15.0014 24.588 15.6798 24.5906C18.0874 24.6035 20.5383 24.6009 22.9076 24.5983C23.9354 24.5983 24.9658 24.5983 25.9936 24.5983H28.4471C28.4904 24.5983 28.5338 24.5983 28.5797 24.5983C29.3244 24.5983 30.0691 24.5983 30.8138 24.6009C32.668 24.606 34.5884 24.6086 36.4706 24.5855C37.552 24.5726 38.3299 23.7941 38.3197 22.7354C38.312 21.6973 37.5239 20.9599 36.4069 20.9444C36.0421 20.9393 35.6749 20.9393 35.3076 20.9419V20.947Z" fill="#C8C9DF"/>
  </g>
  <defs>
    <clipPath id="clip0_15_620">
      <rect width="52" height="80" fill="white"/>
    </clipPath>
  </defs>
</svg>