<svg xmlns="http://www.w3.org/2000/svg" width="80" height="80" viewBox="0 0 80 80" fill="none">
  <g clip-path="url(#clip0_15_606)">
    <path d="M76.7062 35.5413C78.1674 31.9934 77.7365 29.4449 75.383 27.6103C73.2644 25.9589 70.3696 25.8377 68.1487 27.3113C67.03 28.0548 66.2455 29.0516 65.8063 30.2962C65.16 32.1281 65.4721 33.8684 66.3118 35.2773C65.4638 36.2256 64.6655 37.0122 64.0053 37.8985C63.7153 38.2892 63.4888 38.4454 63.0082 38.4427C60.2321 38.4212 57.4533 38.4319 54.6772 38.4319C54.517 38.4319 54.3623 38.4212 54.2132 38.4104C53.4618 31.9718 48.2025 26.8506 41.598 26.1313V21.6863C41.6919 21.6405 41.7388 21.5974 41.7858 21.5974C42.9874 21.5866 44.189 21.5866 45.3905 21.5758C47.1639 21.5569 48.1777 20.579 48.1859 18.8657C48.1942 17.4864 48.1362 16.1044 48.1997 14.725C48.3102 12.3113 47.3766 10.482 45.211 9.27246C45.1751 9.2536 45.1696 9.18086 45.1502 9.13507C47.0092 6.05317 45.8546 3.00091 43.9486 1.41416C41.8024 -0.371939 38.6838 -0.482391 36.3939 1.16362C33.8416 2.99821 33.3002 5.79724 34.8581 9.22127C34.7835 9.27515 34.7062 9.3425 34.6205 9.39099C32.7118 10.5036 31.7809 12.1361 31.8141 14.3102C31.8362 15.7676 31.8141 17.2277 31.8196 18.6852C31.8224 20.6141 32.7864 21.565 34.7559 21.5731C35.9216 21.5785 37.0872 21.5731 38.2998 21.5731V26.1421C31.7367 26.9045 26.5244 32.0149 25.7869 38.4292C22.7401 38.4292 19.6768 38.4319 16.6134 38.4185C16.467 38.4185 16.2433 38.2919 16.1853 38.1679C15.6328 36.988 14.7268 36.1394 13.5832 35.5332C15.108 32.1469 14.6467 29.4476 12.2574 27.5914C10.0448 25.8727 7.01185 25.8377 4.76062 27.5025C2.28288 29.3371 1.78568 32.0311 3.30768 35.5359C0.904521 36.7967 0.0868958 38.8387 0.244344 41.4007C0.318925 42.6211 0.252631 43.8468 0.258155 45.0726C0.26368 46.856 1.2498 47.8554 3.05355 47.8608C6.65829 47.8743 10.263 47.8743 13.8678 47.8608C15.6356 47.8527 16.619 46.8614 16.63 45.1238C16.6383 43.96 16.63 42.7962 16.63 41.6H25.7896C26.541 48.0144 31.7699 53.1194 38.3468 53.863C38.3468 55.1749 38.3219 56.4977 38.3606 57.8177C38.3772 58.3888 38.228 58.6771 37.648 58.9115C34.9216 60.0052 33.4411 62.7854 34.0736 65.5871C34.2366 66.3037 34.568 66.9853 34.8277 67.6938C32.6787 68.8657 31.7119 70.6599 31.8113 73.0494C31.8638 74.2967 31.8887 75.5521 31.803 76.7967C31.6981 78.343 32.2947 79.4072 33.7587 80.0079H46.2551C47.7246 79.4125 48.2992 78.343 48.2108 76.7994C48.1252 75.3204 48.1997 73.8307 48.1859 72.3463C48.1721 70.8323 47.5617 69.5634 46.4236 68.5505C46.0341 68.2057 45.5811 67.9309 45.1309 67.6049C45.2552 67.3678 45.3795 67.1415 45.4927 66.9126C46.8739 64.1001 45.8574 60.6194 42.9846 59.2563C41.6864 58.6421 41.4322 57.9228 41.5344 56.7186C41.6145 55.7703 41.5621 54.8139 41.5538 53.8764C48.1694 53.1787 53.4453 48.0629 54.2132 41.6243H63.3811C63.3811 42.8527 63.3728 44.0192 63.3811 45.1884C63.3949 46.8236 64.3921 47.85 66.0494 47.8581C69.7342 47.877 73.4191 47.8797 77.1039 47.8581C78.7226 47.8474 79.7336 46.821 79.7474 45.2423C79.7612 43.9142 79.6894 42.5833 79.764 41.2579C79.9021 38.7417 79.0292 36.7752 76.7089 35.544L76.7062 35.5413ZM8.41784 29.4018C10.0006 29.3856 11.3182 30.6625 11.3237 32.2143C11.3265 33.7768 10.042 35.0241 8.42889 35.0187C6.82402 35.0133 5.54234 33.7498 5.55891 32.1873C5.57548 30.6706 6.85993 29.4206 8.41508 29.4018H8.41784ZM13.423 44.7035H3.50104C3.50104 43.0683 3.42922 41.4627 3.52866 39.8651C3.58667 38.9303 4.50649 38.2057 5.5451 38.1787C7.4621 38.1275 9.38463 38.1194 11.3016 38.176C12.5833 38.2137 13.3982 39.1081 13.4175 40.3689C13.4396 41.8129 13.423 43.2568 13.423 44.7035ZM39.9959 3.12213C41.5897 3.12213 42.8907 4.39369 42.8824 5.94811C42.8741 7.50252 41.5593 8.7606 39.9655 8.74444C38.3717 8.72558 37.0927 7.43787 37.1204 5.87806C37.148 4.35597 38.4324 3.12213 39.9986 3.12213H39.9959ZM35.0321 18.3996C35.0321 16.8398 34.9962 15.3339 35.0459 13.8306C35.0791 12.7746 35.9713 11.9206 37.0817 11.8937C39.0291 11.8479 40.9765 11.8479 42.9211 11.8937C44.0343 11.9206 44.921 12.7719 44.9569 13.8306C45.0066 15.3339 44.9707 16.8398 44.9707 18.3969H35.0321V18.3996ZM44.9652 72.3113C45.0066 73.7929 44.9762 75.2773 44.9762 76.8452H35.0901C35.0901 75.1884 35.0072 73.5343 35.1233 71.891C35.1868 70.9966 36.1121 70.3366 37.0596 70.3231C39.007 70.2908 40.9571 70.2854 42.9045 70.3231C44.0481 70.3447 44.932 71.2013 44.9652 72.3166V72.3113ZM42.8852 64.4045C42.8576 65.9158 41.5565 67.1658 40.0069 67.1685C38.4241 67.1712 37.1121 65.8835 37.1204 64.3344C37.1287 62.7746 38.4241 61.5354 40.0373 61.5489C41.6394 61.5623 42.9128 62.8393 42.8852 64.4018V64.4045ZM40.0014 51.1286C33.7118 51.1286 28.5933 46.1367 28.5933 40.0025C28.5933 33.8684 33.7118 28.8764 40.0014 28.8764C46.291 28.8764 51.4095 33.8684 51.4095 40.0025C51.4095 46.1367 46.291 51.1286 40.0014 51.1286ZM71.6015 29.4018C73.187 29.4314 74.477 30.7353 74.4439 32.2789C74.4107 33.8333 73.0959 35.0483 71.48 35.016C69.8834 34.9837 68.6349 33.6906 68.6846 32.12C68.7315 30.6087 70.0574 29.3721 71.6015 29.4018ZM76.5349 44.7008H66.5798C66.5798 44.3748 66.5798 44.0516 66.5798 43.7283C66.5798 42.6103 66.5659 41.4923 66.5853 40.3743C66.6101 39.0812 67.4443 38.2003 68.773 38.1679C70.6375 38.1221 72.5048 38.1248 74.3693 38.1679C75.5902 38.1976 76.4852 39.0408 76.5211 40.1642C76.568 41.6405 76.5321 43.1221 76.5321 44.6981L76.5349 44.7008Z" fill="#C8C9DF"/>
    <path d="M40.0016 31.8157C35.3748 31.8157 31.6099 35.4876 31.6099 40.0026C31.6099 44.5177 35.3748 48.1896 40.0016 48.1896C44.6283 48.1896 48.396 44.5177 48.396 40.0026C48.396 35.4876 44.6311 31.8157 40.0016 31.8157ZM40.0016 45.3582C36.9714 45.3582 34.5075 42.9552 34.5075 39.9999C34.5075 37.0447 36.9714 34.6416 40.0016 34.6416C43.0318 34.6416 45.4957 37.0447 45.4957 39.9999C45.4957 42.9552 43.0318 45.3582 40.0016 45.3582Z" fill="#C8C9DF"/>
  </g>
  <defs>
    <clipPath id="clip0_15_606">
      <rect width="79.55" height="80" fill="white" transform="translate(0.225098)"/>
    </clipPath>
  </defs>
</svg>