<svg xmlns="http://www.w3.org/2000/svg" width="83" height="80" viewBox="0 0 83 80" fill="none">
  <g clip-path="url(#clip0_15_611)">
    <path d="M82.6637 37.7355C82.6169 37.3821 82.5728 37.0259 82.5259 36.6725C82.4323 35.9168 82.333 35.1366 82.2008 34.37C80.991 27.3372 78.4145 21.207 74.5401 16.1506C70.6684 11.0942 65.3968 6.9702 58.8687 3.8983C58.3975 3.67538 57.9097 3.47149 57.4358 3.27576C57.3228 3.22954 57.2098 3.18061 57.0968 3.1344C57.7664 2.29166 57.8436 1.49786 57.3283 0.769302C56.9673 0.260943 56.4878 0.00268555 55.9009 0.00268555C55.5234 0.00268555 55.0935 0.114144 54.625 0.334343L54.1621 0.551822C53.3188 0.948723 52.4453 1.35922 51.5938 1.78058C50.4144 2.36234 50.0892 3.30294 50.6486 4.49365C51.1336 5.52396 51.6489 6.55699 52.1449 7.5574C52.685 8.64208 53.4153 8.87043 53.9306 8.87043C54.1455 8.87043 54.3715 8.82965 54.6002 8.75082C55.4793 8.44635 55.8899 7.69604 55.7769 6.62495C55.9009 6.67117 56.0111 6.71194 56.1158 6.75544C64.7465 10.3357 71.1479 16.2376 75.1463 24.3034C78.5055 31.0806 79.616 38.2955 78.4503 45.7496C77.789 49.966 76.3257 54.1008 74.0964 58.0399C73.4792 59.1301 73.7079 60.193 74.6751 60.7503C74.981 60.9243 75.2951 61.014 75.612 61.014C76.3092 61.014 76.9375 60.5899 77.3811 59.8206C79.6849 55.8216 81.2446 51.5672 82.0217 47.1714C82.2008 46.1547 82.3386 45.1135 82.4708 44.1103C82.5314 43.6455 82.5948 43.1806 82.661 42.7158V42.6967V42.6777V37.7382L82.6637 37.7355Z" fill="#C8C9DF"/>
    <path d="M8.99697 45.8556C8.6718 45.2956 8.09863 44.9612 7.46207 44.9612C7.43176 44.9612 7.40145 44.9612 7.37389 44.9612C6.9881 44.9802 6.62436 45.146 6.27163 45.3037C6.21652 45.3282 6.16141 45.3526 6.10629 45.3771C5.6213 42.1774 5.57721 38.9995 5.97953 35.9303C7.33531 25.5783 12.3423 17.1808 20.8573 10.9745C26.9307 6.54606 34.0486 4.22174 42.0096 4.06407C43.3461 4.03689 44.1756 3.33008 44.1728 2.21821C44.1701 1.13081 43.3378 0.369629 42.1502 0.369629C42.0647 0.369629 41.9793 0.372347 41.8911 0.380503C41.3317 0.429436 40.7696 0.470213 40.2074 0.513709C38.182 0.668664 36.0877 0.829055 34.0706 1.23411C24.8943 3.07997 17.1978 7.66064 11.1932 14.8511C4.5714 22.7864 1.49059 32.0728 2.04171 42.452C2.08856 43.3437 2.17674 44.2489 2.26217 45.1243C2.29248 45.4288 2.32003 45.7332 2.35035 46.0377C2.19603 46.0187 2.04998 46.0078 1.9122 46.0078C1.04141 46.0078 0.446195 46.3965 0.140318 47.1659C-0.201382 48.0276 0.101739 48.8378 0.991813 49.4467C2.07203 50.1861 3.04753 50.8522 4.04783 51.4937C4.41984 51.733 4.82216 51.8607 5.21071 51.8607C5.75357 51.8607 6.23857 51.6133 6.57475 51.1648C7.33807 50.1426 8.22539 48.922 9.00524 47.6063C9.32489 47.0653 9.32489 46.4129 9.00248 45.861L8.99697 45.8556Z" fill="#C8C9DF"/>
    <path d="M69.8499 65.2168C68.4693 65.0618 66.9868 64.915 65.5097 64.9041H65.4932C64.8153 64.9041 64.2008 65.2793 63.8922 65.8828C63.5808 66.4863 63.6387 67.1958 64.0382 67.7341C64.2587 68.0277 64.5728 68.2316 64.8787 68.43C64.9145 68.4518 64.9476 68.4763 64.9834 68.498C58.1659 73.6632 50.6596 76.2811 42.6737 76.2811C41.0479 76.2811 39.3752 76.1723 37.6997 75.9576C27.4735 74.6445 19.1267 69.8246 12.8906 61.6311C12.3368 60.9052 11.8297 60.1169 11.3392 59.3557C11.0995 58.9833 10.8515 58.5972 10.5979 58.2221C10.1956 57.6213 9.65276 57.3032 9.02999 57.3032C8.8922 57.3032 8.74615 57.3195 8.60011 57.3494C7.71554 57.537 7.1589 58.1595 7.14237 58.9724C7.1341 59.4454 7.31046 60.0054 7.62461 60.5083C15.0814 72.3936 25.991 78.918 40.0503 79.8994C40.99 79.9646 41.9379 79.9973 42.8666 79.9973C50.9985 79.9973 58.7308 77.4691 65.8459 72.4806C66.2703 72.1816 66.6809 71.8825 67.1135 71.5645C67.2127 71.4911 67.3092 71.4204 67.4084 71.347C67.7749 72.274 68.3536 72.7253 69.1692 72.7253C69.2602 72.7253 69.3566 72.7198 69.4531 72.709C70.4423 72.5921 71.0321 71.8581 71.112 70.6402C71.1533 70.0231 71.2001 69.3924 71.247 68.7862C71.2828 68.3023 71.3214 67.8157 71.3545 67.3318C71.4344 66.1954 70.8116 65.3282 69.8416 65.2195L69.8499 65.2168Z" fill="#C8C9DF"/>
    <path d="M42.6519 15.906C36.1596 15.906 30.0146 18.4233 25.3492 22.9959C20.6536 27.5956 18.0606 33.6931 18.044 40.1659C18.011 53.5708 29.0363 64.5155 42.6244 64.5671H42.6712H42.7208C56.2318 64.5671 67.2902 53.7475 67.3729 40.4459C67.4142 33.9242 64.8707 27.775 60.2137 23.1318C55.5677 18.4995 49.3812 15.9332 42.7952 15.906H42.6519ZM63.7767 40.2746C63.774 45.8177 61.5777 51.029 57.5903 54.9491C53.6112 58.8637 48.3258 61.0195 42.7071 61.0195H42.6878C31.0755 61.0086 21.6346 51.6815 21.6429 40.2284C21.6484 34.699 23.8502 29.4849 27.8459 25.5485C31.836 21.6203 37.1131 19.4564 42.7071 19.4564H42.7346C54.3442 19.4727 63.7823 28.8107 63.7767 40.2746Z" fill="#C8C9DF"/>
    <path d="M32.5663 38.8529L31.7589 38.5756C30.4389 38.1352 29.6811 37.7464 29.6977 37.1429C29.7142 36.4769 30.1937 36.167 30.9846 36.167C31.9738 36.167 32.5525 36.3953 32.9493 36.6563C33.0981 36.7705 33.4619 36.8683 33.7071 36.8683C34.3354 36.8683 34.9114 36.6074 35.1263 35.9413C35.3743 35.1611 34.8452 34.3456 34.0874 33.9405C33.4757 33.6143 32.6683 33.2881 30.9515 33.2881C28.6919 33.2881 27.0743 34.2967 26.4956 36.0392C25.9335 37.7491 26.4791 39.9783 28.9702 41.0032C29.1686 41.0847 29.4993 41.2152 29.7611 41.2968C31.1306 41.7209 32.2191 42.1912 32.2026 42.811C32.186 43.526 31.6404 43.8359 30.7338 43.8359C29.6123 43.8359 29.0997 43.6401 28.7222 43.4118C28.408 43.2487 28.127 42.9877 27.551 43.004C27.1046 43.0203 26.6279 43.2324 26.3799 43.5912C25.8839 44.3388 26.1815 45.2196 26.8098 45.7225C27.6998 46.4212 29.1686 46.7148 30.6374 46.7148C33.641 46.7148 35.4873 45.3637 35.6361 43.0529C35.7684 40.9543 34.498 39.5379 32.5663 38.8529Z" fill="#C8C9DF"/>
    <path d="M36.5068 34.7667C36.5068 35.4328 36.8871 36.2157 37.8433 36.2157H40.3675V46.4372H43.7983V36.2157H46.3225C47.2787 36.2157 47.6589 35.4355 47.6589 34.7667C47.6589 34.098 47.2952 33.3667 46.3225 33.3667H37.8433C36.8706 33.3667 36.5068 34.098 36.5068 34.7667Z" fill="#C8C9DF"/>
    <path d="M53.8809 46.7473C56.3058 46.7473 59.4087 45.5267 59.4087 41.7833V38.2193C59.4087 34.476 56.3086 33.2554 53.8809 33.2554C51.4531 33.2554 48.353 34.476 48.353 38.2193V41.7833C48.353 45.5267 51.4559 46.7473 53.8809 46.7473ZM51.7204 38.1215C51.7204 36.6888 52.842 36.0391 53.8809 36.0391C54.9197 36.0391 56.0413 36.6888 56.0413 38.1215V41.8812C56.0413 43.1833 54.8205 43.9635 53.8809 43.9635C52.9412 43.9635 51.7204 43.1833 51.7204 41.8812V38.1215Z" fill="#C8C9DF"/>
  </g>
  <defs>
    <clipPath id="clip0_15_611">
      <rect width="82.6667" height="80" fill="white"/>
    </clipPath>
  </defs>
</svg>